<svg version="1.1" xmlns="http://www.w3.org/2000/svg" xmlns:xlink="http://www.w3.org/1999/xlink" width="542" height="320"><defs/><g><g transform="translate(-102,-70) scale(1,1)"><path fill="#ffffff" stroke="none" d="M 352 96 L 367 80 L 429 80 L 444 96 L 429 112 L 367 112 L 352 96"/></g><g transform="translate(-102,-70) scale(1,1)"><path fill="none" stroke="#000000" d="M 352 96 L 367 80 L 429 80 L 444 96 L 429 112 L 367 112 L 352 96 L 352 96" stroke-miterlimit="10"/></g><g transform="translate(-102,-70) scale(1,1)"><g><path fill="none" stroke="none"/><text fill="#000000" stroke="none" font-family="Arial" font-size="13px" font-style="normal" font-weight="normal" text-decoration="none" x="375.5" y="102.5">openssl</text></g></g><g transform="translate(-102,-70) scale(1,1)"><rect fill="#ffffff" stroke="none" x="272" y="208" width="87" height="32"/></g><g transform="translate(-102,-70) scale(1,1)"><path fill="none" stroke="#000000" d="M 272 208 L 359 208 L 359 240 L 272 240 L 272 208 Z Z" stroke-miterlimit="10"/></g><g transform="translate(-102,-70) scale(1,1)"><g><path fill="none" stroke="none"/><text fill="#000000" stroke="none" font-family="Arial" font-size="13px" font-style="normal" font-weight="normal" text-decoration="none" x="281.5" y="230.5">ca.key.pem</text></g></g><g transform="translate(-102,-70) scale(1,1)"><path fill="none" stroke="#000000" d="M 400 112 L 400 144 M 400 144 A 8 8 0 0 1 392 152 L 328 152 M 328 152 A 8 8 0 0 0 320 160 L 320 208" stroke-miterlimit="10"/></g><g transform="translate(-102,-70) scale(1,1)"><path fill="#000000" stroke="none" d="M 315.790482243984 197.83732514237585 L 320 208 L 324.209517756016 197.83732514237585"/></g><g transform="translate(-102,-70) scale(1,1)"><path fill="none" stroke="#000000" d="M 315.790482243984 197.83732514237585 L 320 208 L 324.209517756016 197.83732514237585 L 315.790482243984 197.83732514237585" stroke-miterlimit="10"/></g><g transform="translate(-102,-70) scale(1,1)"><rect fill="#ffffff" stroke="none" x="436" y="208" width="74" height="32"/></g><g transform="translate(-102,-70) scale(1,1)"><path fill="none" stroke="#000000" d="M 436 208 L 510 208 L 510 240 L 436 240 L 436 208 Z Z" stroke-miterlimit="10"/></g><g transform="translate(-102,-70) scale(1,1)"><g><path fill="none" stroke="none"/><text fill="#000000" stroke="none" font-family="Arial" font-size="13px" font-style="normal" font-weight="normal" text-decoration="none" x="455" y="230.5">ca.csr</text></g></g><g transform="translate(-102,-70) scale(1,1)"><path fill="none" stroke="#000000" d="M 400 112 L 400 144 M 400 144 A 8 8 0 0 0 408 152 L 464 152 M 464 152 A 8 8 0 0 1 472 160 L 472 208" stroke-miterlimit="10"/></g><g transform="translate(-102,-70) scale(1,1)"><path fill="#000000" stroke="none" d="M 467.790482243984 197.83732514237585 L 472 208 L 476.209517756016 197.83732514237585"/></g><g transform="translate(-102,-70) scale(1,1)"><path fill="none" stroke="#000000" d="M 467.790482243984 197.83732514237585 L 472 208 L 476.209517756016 197.83732514237585 L 467.790482243984 197.83732514237585" stroke-miterlimit="10"/></g><g transform="translate(-102,-70) scale(1,1)"><rect fill="#ffffff" stroke="none" x="560" y="272" width="74" height="32"/></g><g transform="translate(-102,-70) scale(1,1)"><path fill="none" stroke="#000000" d="M 560 272 L 634 272 L 634 304 L 560 304 L 560 272 Z Z" stroke-miterlimit="10"/></g><g transform="translate(-102,-70) scale(1,1)"><g><path fill="none" stroke="none"/><text fill="#000000" stroke="none" font-family="Arial" font-size="13px" font-style="normal" font-weight="normal" text-decoration="none" x="588" y="294.5">CA</text></g></g><g transform="translate(-102,-70) scale(1,1)"><path fill="none" stroke="#000000" d="M 480 240 L 480 268 M 480 268 A 8 8 0 0 0 488 276 L 560 276" stroke-miterlimit="10"/></g><g transform="translate(-102,-70) scale(1,1)"><path fill="#000000" stroke="none" d="M 549.8373251423759 280.209517756016 L 560 276 L 549.8373251423758 271.790482243984"/></g><g transform="translate(-102,-70) scale(1,1)"><path fill="none" stroke="#000000" d="M 549.8373251423759 280.209517756016 L 560 276 L 549.8373251423758 271.790482243984 L 549.8373251423759 280.209517756016" stroke-miterlimit="10"/></g><g transform="translate(-102,-70) scale(1,1)"><rect fill="#ffffff" stroke="none" x="280" y="280" width="74" height="32"/></g><g transform="translate(-102,-70) scale(1,1)"><path fill="none" stroke="#000000" d="M 280 280 L 354 280 L 354 312 L 280 312 L 280 280 Z Z" stroke-miterlimit="10"/></g><g transform="translate(-102,-70) scale(1,1)"><g><path fill="none" stroke="none"/><text fill="#000000" stroke="none" font-family="Arial" font-size="13px" font-style="normal" font-weight="normal" text-decoration="none" x="299" y="302.5">ca.cer</text></g></g><g transform="translate(-102,-70) scale(1,1)"><path fill="none" stroke="#000000" d="M 560 296 L 354 296" stroke-miterlimit="10"/></g><g transform="translate(-102,-70) scale(1,1)"><path fill="#000000" stroke="none" d="M 364.16267485762415 291.790482243984 L 354 296 L 364.16267485762415 300.209517756016"/></g><g transform="translate(-102,-70) scale(1,1)"><path fill="none" stroke="#000000" d="M 364.16267485762415 291.790482243984 L 354 296 L 364.16267485762415 300.209517756016 L 364.16267485762415 291.790482243984" stroke-miterlimit="10"/></g><g transform="translate(-102,-70) scale(1,1)"><rect fill="#ffffff" stroke="none" x="139" y="248" width="45" height="32"/></g><g transform="translate(-102,-70) scale(1,1)"><path fill="none" stroke="#000000" d="M 139 248 L 184 248 L 184 280 L 139 280 L 139 248 Z Z" stroke-miterlimit="10"/></g><g transform="translate(-102,-70) scale(1,1)"><path fill="none" stroke="#000000" d="M 149 248 L 149 280" stroke-miterlimit="10"/></g><g transform="translate(-102,-70) scale(1,1)"><path fill="none" stroke="#000000" d="M 139 258 L 184 258" stroke-miterlimit="10"/></g><g transform="translate(-102,-70) scale(1,1)"><g><path fill="none" stroke="none"/><text fill="#000000" stroke="none" font-family="Arial" font-size="13px" font-style="normal" font-weight="normal" text-decoration="none" x="153.5" y="275.5">归档</text></g></g><g transform="translate(-102,-70) scale(1,1)"><path fill="none" stroke="#000000" d="M 272 224 L 256 224 M 256 224 A 8 8 0 0 0 248 232 L 248 256 M 248 256 A 8 8 0 0 1 240 264 L 184 264" stroke-miterlimit="10"/></g><g transform="translate(-102,-70) scale(1,1)"><path fill="#000000" stroke="none" d="M 194.16267485762415 259.790482243984 L 184 264 L 194.16267485762415 268.209517756016"/></g><g transform="translate(-102,-70) scale(1,1)"><path fill="none" stroke="#000000" d="M 194.16267485762415 259.790482243984 L 184 264 L 194.16267485762415 268.209517756016 L 194.16267485762415 259.790482243984" stroke-miterlimit="10"/></g><g transform="translate(-102,-70) scale(1,1)"><path fill="none" stroke="#000000" d="M 280 296 L 256 296 M 256 296 A 8 8 0 0 1 248 288 L 248 272 M 248 272 A 8 8 0 0 0 240 264 L 184 264" stroke-miterlimit="10"/></g><g transform="translate(-102,-70) scale(1,1)"><path fill="#000000" stroke="none" d="M 194.16267485762415 259.790482243984 L 184 264 L 194.16267485762415 268.209517756016"/></g><g transform="translate(-102,-70) scale(1,1)"><path fill="none" stroke="#000000" d="M 194.16267485762415 259.790482243984 L 184 264 L 194.16267485762415 268.209517756016 L 194.16267485762415 259.790482243984" stroke-miterlimit="10"/></g><g transform="translate(-102,-70) scale(1,1)"><path fill="#ffffff" stroke="none" d="M 112 296 L 209 296 L 219 306 L 219 379 L 112 379 L 112 296"/></g><g transform="translate(-102,-70) scale(1,1)"><path fill="none" stroke="#000000" d="M 112 296 L 209 296 L 219 306 L 219 379 L 112 379 L 112 296 L 112 296" stroke-miterlimit="10"/></g><g transform="translate(-102,-70) scale(1,1)"><path fill="none" stroke="#000000" d="M 209 296 L 209 306 L 219 306 L 209 296" stroke-miterlimit="10"/></g><g transform="translate(-102,-70) scale(1,1)"><g><path fill="none" stroke="none"/><text fill="#000000" stroke="none" font-family="Arial" font-size="13px" font-style="normal" font-weight="normal" text-decoration="none" x="117" y="314">1.生成密钥库文</text></g></g><g transform="translate(-102,-70) scale(1,1)"><g><path fill="none" stroke="none"/><text fill="#000000" stroke="none" font-family="Arial" font-size="13px" font-style="normal" font-weight="normal" text-decoration="none" x="117" y="329">   件：ca.p12</text></g></g><g transform="translate(-102,-70) scale(1,1)"><g><path fill="none" stroke="none"/><text fill="#000000" stroke="none" font-family="Arial" font-size="13px" font-style="normal" font-weight="normal" text-decoration="none" x="117" y="344">  --------</text></g></g><g transform="translate(-102,-70) scale(1,1)"><g><path fill="none" stroke="none"/><text fill="#000000" stroke="none" font-family="Arial" font-size="13px" font-style="normal" font-weight="normal" text-decoration="none" x="117" y="359">2.用来签发下级</text></g></g><g transform="translate(-102,-70) scale(1,1)"><g><path fill="none" stroke="none"/><text fill="#000000" stroke="none" font-family="Arial" font-size="13px" font-style="normal" font-weight="normal" text-decoration="none" x="117" y="374">   证书</text></g></g><g transform="translate(-102,-70) scale(1,1)"><path fill="none" stroke="#000000" d="M 163 280 L 163 296" stroke-miterlimit="10" stroke-dasharray="3"/></g><g transform="translate(-102,-70) scale(1,1)"><g><path fill="none" stroke="none"/><text fill="#000000" stroke="none" font-family="Arial" font-size="13px" font-style="normal" font-weight="normal" text-decoration="none" x="413" y="138">(比如：req指令)</text></g></g><g transform="translate(-102,-70) scale(1,1)"><g><path fill="none" stroke="none"/><text fill="#000000" stroke="none" font-family="Arial" font-size="13px" font-style="normal" font-weight="normal" text-decoration="none" x="293" y="258">私钥文件</text></g></g><g transform="translate(-102,-70) scale(1,1)"><g><path fill="none" stroke="none"/><text fill="#000000" stroke="none" font-family="Arial" font-size="13px" font-style="normal" font-weight="normal" text-decoration="none" x="525" y="226">证书签发申请文件</text></g></g><g transform="translate(-102,-70) scale(1,1)"><g><path fill="none" stroke="none"/><text fill="#000000" stroke="none" font-family="Arial" font-size="13px" font-style="normal" font-weight="normal" text-decoration="none" x="525" y="241">（包含公钥）</text></g></g><g transform="translate(-102,-70) scale(1,1)"><g><path fill="none" stroke="none"/><text fill="#000000" stroke="none" font-family="Arial" font-size="13px" font-style="normal" font-weight="normal" text-decoration="none" x="573" y="322">签发机构</text></g></g><g transform="translate(-102,-70) scale(1,1)"><g><path fill="none" stroke="none"/><text fill="#000000" stroke="none" font-family="Arial" font-size="13px" font-style="normal" font-weight="normal" text-decoration="none" x="397" y="290">(也可以自签发)</text></g></g><g transform="translate(-102,-70) scale(1,1)"><g><path fill="none" stroke="none"/><text fill="#000000" stroke="none" font-family="Arial" font-size="13px" font-style="normal" font-weight="normal" text-decoration="none" x="277" y="330">   证书文件</text></g></g><g transform="translate(-102,-70) scale(1,1)"><g><path fill="none" stroke="none"/><text fill="#000000" stroke="none" font-family="Arial" font-size="13px" font-style="normal" font-weight="normal" text-decoration="none" x="277" y="345">（包含公钥）</text></g></g></g></svg>